# xmcd
#
# Track frame offsets:
#	150
#	18120
#	33683
#	49484
#	67311
#	83072
#	98715
#	111611
#	128178
#	141026
#	158398
#	173707
#	189010
#	202209
#	220261
#	234061
#	248466
#	269453
#	285216
#	297469
#	317291
#	333185
#
# Disc length: 4659 seconds
#
# Revision: 1
# Processed by: cddbd v1.5.2PL0 Copyright (c) Steve Scherf et al.
# Submitted via: EasyCDDAExtractor 11.5.0.1
#
DISCID=35123116
DTITLE=Various Artist - NCT 084
DYEAR=2006
DGENRE=Country
TTITLE0=The Dixie Chicks - Not Ready To Make Nice
TTITLE1=Tim McGraw - When The Stars Go Blue
TTITLE2=The Wreckers - Leave The Pieces
TTITLE3=Diamond Rio - God Only Cries
TTITLE4=The Lost Trailers - Call Me Crazy
TTITLE5=Kenny Chesney - Summertime
TTITLE6=Ray Scott - Gone Either Way
TTITLE7=Ronnie Milsap - Local Girls
TTITLE8=Ashley Monroe - Satisfied
TTITLE9=Gary Nichols - On Broken Ground
TTITLE10=Julie Roberts - Men and Mascara
TTITLE11=Hank Williams III - Lowdown
TTITLE12=Emerson Drive - A Good Man
TTITLE13=10 City Run - City Of Angels (Dumb Ol' Country Boy)
TTITLE14=LeLand Martin with Chalee Tennison - Same Ol' Song And Dance
TTITLE15=Shooter Jennings - Some Rowdy Women
TTITLE16=Drew Womack - That's Just Me
TTITLE17=Robin English - I'm The One
TTITLE18=Ray Stevens - The New Battle Of New Orleans
TTITLE19=Keith Urban - Tonight I Wanna Cry (Live Version)
TTITLE20=Keith Bryant - Just The Way We Do It (Round Here)
TTITLE21=No Justice - Red Dress
EXTD=
EXTT0=
EXTT1=
EXTT2=
EXTT3=
EXTT4=
EXTT5=
EXTT6=
EXTT7=
EXTT8=
EXTT9=
EXTT10=
EXTT11=
EXTT12=
EXTT13=
EXTT14=
EXTT15=
EXTT16=
EXTT17=
EXTT18=
EXTT19=
EXTT20=
EXTT21=
PLAYORDER=
